PathFileType  4	(X/Y/Z) C:\Users\antoi\Documents\MyRepositories\mobilecap\ResultsAnalysis
DataRate	CameraRate	NumFrames	NumMarkers	Units	OrigDataRate	OrigDataStartFrame	OrigNumFrames
100.0	100.0	4	51	mm	100.0	1	141
Frame#	Time	r_knee			r_shank_antsup			r_ankle			r_calc			r_5meta			r_toe			L_knee			L_shank_antsup			L_ankle			L_calc			L_5meta			L_toe			r_sh2			r_sh3			r_sh4			L_sh2			L_sh3			r_thigh1			r_thigh2			r_thigh3			r_thigh4			r_thigh5			L_thigh1			L_thigh2			L_thigh3			L_thigh4			r.ASIS			r.PSIS			L.ASIS			L.PSIS			C7			R_Shoulder			L_Shoulder			R_Sternum			L_Sternum			R_humerus			R_elbow_med			R_elbow_lat			R_forearm			R_wrist_radius			R_wrist_ulna			L_humerus			L_elbow_med			L_elbow_lat			L_forearm			L_wrist_radius			L_wrist_ulna			R_HJC			L_HJC			R_HJC_reg			L_HJC_reg			
		X1	Y1	Z1	X2	Y2	Z2	X3	Y3	Z3	X4	Y4	Z4	X5	Y5	Z5	X6	Y6	Z6	X7	Y7	Z7	X8	Y8	Z8	X9	Y9	Z9	X10	Y10	Z10	X11	Y11	Z11	X12	Y12	Z12	X13	Y13	Z13	X14	Y14	Z14	X15	Y15	Z15	X16	Y16	Z16	X17	Y17	Z17	X18	Y18	Z18	X19	Y19	Z19	X20	Y20	Z20	X21	Y21	Z21	X22	Y22	Z22	X23	Y23	Z23	X24	Y24	Z24	X25	Y25	Z25	X26	Y26	Z26	X27	Y27	Z27	X28	Y28	Z28	X29	Y29	Z29	X30	Y30	Z30	X31	Y31	Z31	X32	Y32	Z32	X33	Y33	Z33	X34	Y34	Z34	X35	Y35	Z35	X36	Y36	Z36	X37	Y37	Z37	X38	Y38	Z38	X39	Y39	Z39	X40	Y40	Z40	X41	Y41	Z41	X42	Y42	Z42	X43	Y43	Z43	X44	Y44	Z44	X45	Y45	Z45	X46	Y46	Z46	X47	Y47	Z47	X48	Y48	Z48	X49	Y49	Z49	X50	Y50	Z50	X51	Y51	Z51	

1	0.00000000	-139.36469	486.78453	-82.32677	-67.35823	420.42859	-89.35055	17.23441	101.51125	-110.95847	-18.90777	42.57817	-162.56373	148.90021	114.28594	-78.10448	154.74878	164.75287	-126.83784	-471.13269	479.64013	-341.96741	-475.23740	386.29653	-323.03509	-683.93156	122.32611	-286.87005	-764.23508	100.00114	-234.39336	-602.14141	37.57180	-326.86420	-546.99570	53.77130	-273.20805	-23.81503	315.67135	-95.80733	-126.16874	393.11746	-50.60874	-88.89881	284.18674	-53.19842	-543.33389	431.78344	-363.10381	-605.20693	327.29968	-358.26170	-211.45243	754.72742	-57.44729	-161.33706	658.99059	-73.94594	-192.56625	610.03697	-38.92374	-309.76990	698.70497	-31.72263	-244.57445	597.31935	-54.62539	-314.59181	690.40804	-377.59227	-344.65231	557.85952	-345.43472	-416.15387	705.55413	-411.64206	-448.98686	583.54212	-367.54916	-237.66024	924.32029	-106.11716	-446.68505	946.38017	-176.52661	-246.88294	912.68101	-364.60983	-447.43741	956.60571	-269.30836	-395.91549	1409.00484	-222.28623	-337.49994	1352.07205	-53.33904	-299.34693	1383.89843	-370.69104	-276.02334	1325.40669	-193.52950	-273.16472	1332.11612	-238.60270	-318.33059	1217.30559	-2.82084	-418.23908	1026.71833	-53.64754	-422.52107	1040.63215	12.87217	-383.00466	974.31449	51.35863	-339.03097	807.42824	47.74958	-385.71662	811.15668	69.79739	-249.08961	1251.55244	-427.79618	-306.94183	1043.54771	-425.32008	-267.88140	1066.82329	-490.19655	-203.93890	1024.49657	-484.26316	-115.74121	874.10273	-447.76574	-137.69733	869.15577	-493.34676	-319.90187	833.91743	-125.98081	-328.49063	830.30104	-315.31209	-307.18344	824.48710	-151.89296	-308.56147	843.20765	-321.74293	
2	0.01000000	-124.14047	484.95498	-84.33329	-52.47299	417.60225	-92.22751	25.17898	98.93819	-112.92923	-13.49920	44.18069	-164.95200	156.60596	105.40231	-79.75534	166.20385	154.17545	-129.32557	-459.67782	478.67710	-342.40112	-465.55411	385.16593	-323.42727	-680.38446	125.93304	-287.83442	-761.13226	106.35197	-235.32798	-601.33489	37.76211	-326.77350	-545.59484	53.17489	-273.49364	-10.60924	312.27081	-98.82239	-111.77751	391.14441	-53.39392	-76.48335	281.59831	-56.30756	-532.62536	432.47723	-363.60121	-596.84211	329.26256	-358.93143	-195.25022	752.87574	-56.70440	-145.27580	657.25643	-74.04619	-176.97548	607.99304	-40.22846	-293.82577	696.70777	-32.68904	-228.92287	595.47378	-56.27350	-301.03864	688.05427	-378.28102	-332.30094	555.79840	-346.21553	-402.60853	704.18443	-411.87944	-436.45256	582.44257	-367.72369	-221.49417	922.08315	-106.09603	-431.15253	944.67386	-176.83721	-231.54442	910.09606	-365.13932	-431.74921	955.01840	-269.51155	-382.85929	1406.57869	-220.07214	-324.62861	1348.82028	-51.44156	-286.07492	1383.28404	-368.59326	-262.36471	1323.54696	-191.66125	-259.22429	1330.61627	-236.66303	-305.38076	1213.98126	-1.54069	-403.64680	1023.28695	-54.78377	-409.30154	1036.88227	11.65632	-370.77725	970.37569	50.50422	-327.17448	803.38511	46.78980	-374.08213	807.17679	68.14077	-235.64050	1251.14904	-426.71850	-293.42815	1043.08840	-423.71402	-255.20955	1066.38329	-489.10785	-191.06741	1024.08336	-483.77166	-102.40844	873.77383	-448.27303	-124.74544	868.82007	-493.53949	-304.44038	831.93788	-126.12951	-313.27280	828.10255	-315.45094	-291.79458	821.88049	-152.19049	-292.88569	840.87985	-322.41701	
3	0.02000000	-108.88884	483.44084	-86.23755	-37.54605	415.09769	-95.06305	32.95873	96.58286	-114.80494	-8.30116	45.91276	-167.15874	164.09243	96.47363	-81.51439	177.34782	143.46677	-131.94583	-447.93782	477.66581	-342.81780	-455.56170	384.05518	-323.81007	-676.56014	129.67794	-288.83992	-757.75097	112.97487	-236.29638	-600.45920	38.03258	-326.72136	-544.13554	52.55444	-273.76202	2.60812	309.17531	-101.77255	-97.26301	389.52237	-56.05445	-63.92843	279.37996	-59.25300	-521.58529	433.21594	-364.06951	-588.13539	331.30747	-359.59831	-178.96729	751.30696	-56.08841	-129.22097	655.71937	-74.24027	-161.34724	606.28090	-41.51560	-277.82053	695.10436	-33.60289	-213.40405	594.08580	-57.87781	-287.25521	685.79306	-378.88782	-319.62618	553.79573	-346.92756	-388.82567	702.84304	-412.04063	-423.60898	581.34734	-367.83468	-205.29680	920.05120	-106.03049	-415.56584	943.12482	-177.12844	-216.07374	907.62828	-365.60913	-415.93614	953.50376	-269.74668	-369.72901	1404.28888	-217.85569	-311.70123	1345.70513	-49.53131	-272.72967	1382.78907	-366.49769	-248.63715	1321.85450	-189.75858	-245.22057	1329.27915	-234.69800	-292.32960	1210.79250	-0.26998	-388.92997	1019.97715	-55.88187	-395.94927	1033.26668	10.46869	-358.42739	966.56886	49.68516	-315.12888	799.48097	45.86348	-362.27708	803.33737	66.52328	-222.16401	1250.82889	-425.65856	-279.92418	1042.70780	-422.06117	-242.58050	1066.02293	-487.98089	-178.25329	1023.71667	-483.25820	-89.18629	873.45429	-448.76526	-111.95179	868.49103	-493.71887	-288.90175	830.14117	-126.21043	-297.91792	826.01432	-315.52283	-276.39642	819.53048	-152.40076	-277.06982	838.64283	-323.01045	
4	0.03000000	-93.53947	482.51640	-87.97082	-22.52163	413.15586	-97.81653	40.41701	94.61448	-116.50672	-3.50022	47.84098	-169.02615	171.14226	87.57674	-83.43289	187.84943	132.65159	-134.75941	-435.62221	476.57256	-343.20999	-444.97669	382.96585	-324.18821	-672.21098	133.67214	-289.92319	-753.84012	120.10935	-237.33259	-599.45426	38.44799	-326.73424	-542.57420	51.88908	-274.00508	15.83724	306.60964	-104.59674	-82.50779	388.53460	-58.46755	-51.13127	277.82502	-61.86916	-509.88552	434.00586	-364.49002	-578.78372	333.49978	-360.26546	-162.53663	750.29350	-55.72748	-113.14332	654.60834	-74.62720	-145.61755	605.18813	-42.77236	-261.66882	694.22662	-34.41051	-198.03911	593.52377	-59.37709	-273.04078	683.70781	-379.33754	-306.33330	551.90507	-347.51151	-374.59821	701.54933	-412.06238	-410.17913	580.24951	-367.83713	-189.05625	918.41949	-105.87900	-399.87937	941.87603	-177.39439	-200.37313	905.37887	-365.96112	-399.90653	952.12267	-270.05141	-356.45719	1402.25507	-215.64313	-298.67192	1342.84667	-47.60435	-259.23645	1382.51439	-364.40788	-234.78266	1320.47226	-187.79819	-231.10125	1328.24114	-232.68883	-279.09471	1207.85544	0.97664	-373.98973	1016.90018	-56.91372	-382.35303	1029.90379	9.32875	-345.83810	963.01632	48.92450	-302.73430	795.84167	45.00010	-350.16119	799.76441	64.98039	-208.63871	1250.66572	-424.63360	-266.43814	1042.48139	-420.32086	-230.02032	1065.81109	-486.78148	-165.54177	1023.43831	-482.70421	-76.17760	873.14899	-449.22801	-99.45077	868.17116	-493.86846	-273.23168	828.70003	-126.16013	-282.31598	824.13148	-315.46378	-260.97851	817.67429	-152.42586	-261.01865	836.57432	-323.42967	
